<?xml version="1.0" encoding="UTF-8" standalone="no"?>
<!-- Created with Inkscape (http://www.inkscape.org/) -->

<svg
   xmlns:dc="http://purl.org/dc/elements/1.1/"
   xmlns:cc="http://creativecommons.org/ns#"
   xmlns:rdf="http://www.w3.org/1999/02/22-rdf-syntax-ns#"
   xmlns:svg="http://www.w3.org/2000/svg"
   xmlns="http://www.w3.org/2000/svg"
   xmlns:xlink="http://www.w3.org/1999/xlink"
   xmlns:sodipodi="http://sodipodi.sourceforge.net/DTD/sodipodi-0.dtd"
   xmlns:inkscape="http://www.inkscape.org/namespaces/inkscape"
   width="128"
   height="128"
   id="svg2"
   version="1.1"
   inkscape:version="0.48.0 r9654"
   sodipodi:docname="icon.svg">
  <defs
     id="defs4">
    <inkscape:perspective
       sodipodi:type="inkscape:persp3d"
       inkscape:vp_x="0 : 64 : 1"
       inkscape:vp_y="0 : 1000 : 0"
       inkscape:vp_z="128 : 64 : 1"
       inkscape:persp3d-origin="64 : 42.666667 : 1"
       id="perspective90" />
    <linearGradient
       inkscape:collect="always"
       id="linearGradient4092">
      <stop
         style="stop-color:#ff11b1;stop-opacity:0.76875"
         offset="0"
         id="stop4094" />
      <stop
         id="stop4100"
         offset="0.46345505"
         style="stop-color:#ff0fb8;stop-opacity:0.58125" />
      <stop
         style="stop-color:#ff0bd8;stop-opacity:0"
         offset="1"
         id="stop4096" />
    </linearGradient>
    <linearGradient
       id="linearGradient4030"
       inkscape:collect="always">
      <stop
         id="stop4032"
         offset="0"
         style="stop-color:#3f301f;stop-opacity:1" />
      <stop
         style="stop-color:#5d4c3a;stop-opacity:1;"
         offset="0.49071908"
         id="stop4034" />
      <stop
         id="stop4036"
         offset="1"
         style="stop-color:#998474;stop-opacity:1" />
    </linearGradient>
    <linearGradient
       id="linearGradient4012">
      <stop
         style="stop-color:#000000;stop-opacity:0"
         offset="0"
         id="stop4014" />
      <stop
         style="stop-color:#000000;stop-opacity:1"
         offset="1"
         id="stop4016" />
    </linearGradient>
    <linearGradient
       id="linearGradient4002">
      <stop
         id="stop4004"
         offset="0"
         style="stop-color:#3c3c3c;stop-opacity:1;" />
      <stop
         id="stop4008"
         offset="1"
         style="stop-color:#000000;stop-opacity:1" />
    </linearGradient>
    <linearGradient
       inkscape:collect="always"
       id="linearGradient3972">
      <stop
         style="stop-color:#3f301f;stop-opacity:1"
         offset="0"
         id="stop3974" />
      <stop
         id="stop3980"
         offset="0.49071908"
         style="stop-color:#5d4c3a;stop-opacity:1;" />
      <stop
         style="stop-color:#b39b88;stop-opacity:1"
         offset="1"
         id="stop3976" />
    </linearGradient>
    <linearGradient
       inkscape:collect="always"
       id="linearGradient3964">
      <stop
         style="stop-color:#1e1812;stop-opacity:1"
         offset="0"
         id="stop3966" />
      <stop
         style="stop-color:#6f5a3a;stop-opacity:1"
         offset="1"
         id="stop3968" />
    </linearGradient>
    <linearGradient
       inkscape:collect="always"
       id="linearGradient3950">
      <stop
         style="stop-color:#d44294;stop-opacity:1"
         offset="0"
         id="stop3952" />
      <stop
         style="stop-color:#df72af;stop-opacity:1"
         offset="1"
         id="stop3954" />
    </linearGradient>
    <linearGradient
       inkscape:collect="always"
       id="linearGradient3936">
      <stop
         style="stop-color:#940e68;stop-opacity:1"
         offset="0"
         id="stop3938" />
      <stop
         style="stop-color:#f53eba;stop-opacity:1"
         offset="1"
         id="stop3940" />
    </linearGradient>
    <linearGradient
       inkscape:collect="always"
       id="linearGradient3928">
      <stop
         style="stop-color:#4e4e4e;stop-opacity:1"
         offset="0"
         id="stop3930" />
      <stop
         id="stop3958"
         offset="0.67715502"
         style="stop-color:#d8d8d8;stop-opacity:1;" />
      <stop
         style="stop-color:#ffffff;stop-opacity:1"
         offset="1"
         id="stop3932" />
    </linearGradient>
    <linearGradient
       inkscape:collect="always"
       id="linearGradient3920">
      <stop
         style="stop-color:#3c3c3c;stop-opacity:1;"
         offset="0"
         id="stop3922" />
      <stop
         id="stop3962"
         offset="0.58061224"
         style="stop-color:#c2c2c2;stop-opacity:1;" />
      <stop
         style="stop-color:#ffffff;stop-opacity:1"
         offset="1"
         id="stop3924" />
    </linearGradient>
    <linearGradient
       inkscape:collect="always"
       id="linearGradient3912">
      <stop
         style="stop-color:#858585;stop-opacity:1"
         offset="0"
         id="stop3914" />
      <stop
         id="stop3960"
         offset="0.46012974"
         style="stop-color:#e3e3e3;stop-opacity:1;" />
      <stop
         style="stop-color:#ffffff;stop-opacity:1"
         offset="1"
         id="stop3916" />
    </linearGradient>
    <linearGradient
       inkscape:collect="always"
       xlink:href="#linearGradient3912"
       id="linearGradient3918"
       x1="11.548682"
       y1="45.11673"
       x2="40.285088"
       y2="73.930817"
       gradientUnits="userSpaceOnUse"
       gradientTransform="matrix(0.8660254,0.5,-0.5,0.8660254,40.713741,900.91648)" />
    <linearGradient
       inkscape:collect="always"
       xlink:href="#linearGradient3920"
       id="linearGradient3926"
       x1="41.037445"
       y1="17.388296"
       x2="63.928574"
       y2="26.876425"
       gradientUnits="userSpaceOnUse"
       gradientTransform="matrix(0.8660254,0.5,-0.5,0.8660254,40.713741,900.91648)" />
    <linearGradient
       inkscape:collect="always"
       xlink:href="#linearGradient3928"
       id="linearGradient3934"
       x1="24.36993"
       y1="108.42829"
       x2="28.158003"
       y2="87.088821"
       gradientUnits="userSpaceOnUse"
       gradientTransform="matrix(0.8660254,0.5,-0.5,0.8660254,40.713741,900.91648)" />
    <linearGradient
       inkscape:collect="always"
       xlink:href="#linearGradient3936"
       id="linearGradient3942"
       x1="34.821426"
       y1="113.35714"
       x2="41.42857"
       y2="98.892853"
       gradientUnits="userSpaceOnUse"
       gradientTransform="matrix(0.8660254,0.5,-0.5,0.8660254,40.713741,900.91648)" />
    <linearGradient
       inkscape:collect="always"
       xlink:href="#linearGradient3950"
       id="linearGradient3956"
       x1="53.392857"
       y1="55.142857"
       x2="63.928574"
       y2="55.142857"
       gradientUnits="userSpaceOnUse" />
    <linearGradient
       inkscape:collect="always"
       xlink:href="#linearGradient3964"
       id="linearGradient3970"
       x1="-563.58325"
       y1="801.24463"
       x2="-563.81372"
       y2="812.76025"
       gradientUnits="userSpaceOnUse"
       spreadMethod="reflect"
       gradientTransform="translate(486.00176,163.6604)" />
    <linearGradient
       inkscape:collect="always"
       xlink:href="#linearGradient4030"
       id="linearGradient3978"
       x1="48.732956"
       y1="83.04821"
       x2="63.928574"
       y2="83.04821"
       gradientUnits="userSpaceOnUse" />
    <linearGradient
       inkscape:collect="always"
       xlink:href="#linearGradient4002"
       id="linearGradient4000"
       x1="58.083771"
       y1="80.14402"
       x2="53.916893"
       y2="86.710014"
       gradientUnits="userSpaceOnUse" />
    <linearGradient
       inkscape:collect="always"
       xlink:href="#linearGradient4012"
       id="linearGradient4010"
       gradientUnits="userSpaceOnUse"
       x1="58.462578"
       y1="80.017754"
       x2="50.381359"
       y2="70.547577"
       gradientTransform="translate(485.71737,759.85969)" />
    <linearGradient
       inkscape:collect="always"
       xlink:href="#linearGradient3972"
       id="linearGradient4024"
       x1="55.432121"
       y1="109.56471"
       x2="63.928574"
       y2="109.56471"
       gradientUnits="userSpaceOnUse" />
    <linearGradient
       inkscape:collect="always"
       xlink:href="#linearGradient4012"
       id="linearGradient4028"
       gradientUnits="userSpaceOnUse"
       x1="60.104076"
       y1="98.2005"
       x2="60.104076"
       y2="90.497047" />
    <linearGradient
       inkscape:collect="always"
       xlink:href="#linearGradient3972"
       id="linearGradient4058"
       gradientUnits="userSpaceOnUse"
       x1="55.432121"
       y1="109.56471"
       x2="63.928574"
       y2="109.56471"
       gradientTransform="translate(-127.85714,924.36218)" />
    <linearGradient
       inkscape:collect="always"
       xlink:href="#linearGradient4012"
       id="linearGradient4060"
       gradientUnits="userSpaceOnUse"
       x1="60.104076"
       y1="98.2005"
       x2="60.104076"
       y2="90.497047"
       gradientTransform="translate(-127.85714,924.36218)" />
    <linearGradient
       inkscape:collect="always"
       xlink:href="#linearGradient4030"
       id="linearGradient4062"
       gradientUnits="userSpaceOnUse"
       x1="48.732956"
       y1="83.04821"
       x2="63.928574"
       y2="83.04821"
       gradientTransform="translate(-127.85714,924.36218)" />
    <linearGradient
       inkscape:collect="always"
       xlink:href="#linearGradient3964"
       id="linearGradient4064"
       gradientUnits="userSpaceOnUse"
       spreadMethod="reflect"
       x1="-563.58325"
       y1="801.24463"
       x2="-563.81372"
       y2="812.76025"
       gradientTransform="translate(-388.21084,-502.81916)" />
    <linearGradient
       inkscape:collect="always"
       xlink:href="#linearGradient4012"
       id="linearGradient4066"
       gradientUnits="userSpaceOnUse"
       x1="58.462578"
       y1="80.017754"
       x2="50.381359"
       y2="70.547577"
       gradientTransform="translate(-613.57451,759.85969)" />
    <linearGradient
       inkscape:collect="always"
       xlink:href="#linearGradient3920"
       id="linearGradient4068"
       gradientUnits="userSpaceOnUse"
       x1="41.037445"
       y1="17.388296"
       x2="63.928574"
       y2="26.876425"
       gradientTransform="matrix(-0.8660254,-0.5,-0.5,0.8660254,151.44127,964.84505)" />
    <linearGradient
       inkscape:collect="always"
       xlink:href="#linearGradient3912"
       id="linearGradient4070"
       gradientUnits="userSpaceOnUse"
       x1="11.548682"
       y1="45.11673"
       x2="40.285088"
       y2="73.930817"
       gradientTransform="matrix(-0.8660254,-0.5,-0.5,0.8660254,151.44127,964.84505)" />
    <linearGradient
       inkscape:collect="always"
       xlink:href="#linearGradient3928"
       id="linearGradient4072"
       gradientUnits="userSpaceOnUse"
       x1="24.36993"
       y1="108.42829"
       x2="28.158003"
       y2="87.088821"
       gradientTransform="matrix(-0.8660254,-0.5,-0.5,0.8660254,151.44127,964.84505)" />
    <linearGradient
       inkscape:collect="always"
       xlink:href="#linearGradient3936"
       id="linearGradient4074"
       gradientUnits="userSpaceOnUse"
       x1="34.821426"
       y1="113.35714"
       x2="41.42857"
       y2="98.892853"
       gradientTransform="matrix(-0.8660254,-0.5,-0.5,0.8660254,151.44127,964.84505)" />
    <linearGradient
       inkscape:collect="always"
       xlink:href="#linearGradient3950"
       id="linearGradient4076"
       gradientUnits="userSpaceOnUse"
       x1="53.392857"
       y1="55.142857"
       x2="63.928574"
       y2="55.142857"
       gradientTransform="matrix(-1,0,0,1,127.85714,924.36218)" />
    <radialGradient
       inkscape:collect="always"
       xlink:href="#linearGradient4092"
       id="radialGradient4098"
       cx="64.10714"
       cy="988.61221"
       fx="64.10714"
       fy="988.61221"
       r="64.10714"
       gradientUnits="userSpaceOnUse"
       gradientTransform="translate(485.71737,-164.50249)" />
    <linearGradient
       inkscape:collect="always"
       xlink:href="#linearGradient3972"
       id="linearGradient3082"
       x1="55.179581"
       y1="103.37753"
       x2="63.928574"
       y2="103.37753"
       gradientUnits="userSpaceOnUse"
       spreadMethod="reflect"
       gradientTransform="translate(485.71737,759.85969)" />
    <linearGradient
       inkscape:collect="always"
       xlink:href="#linearGradient4012"
       id="linearGradient3854"
       gradientUnits="userSpaceOnUse"
       spreadMethod="pad"
       x1="63.928574"
       y1="98.579308"
       x2="63.928574"
       y2="90.245552"
       gradientTransform="translate(485.71737,759.85969)" />
    <linearGradient
       inkscape:collect="always"
       xlink:href="#linearGradient3972"
       id="linearGradient3860"
       gradientUnits="userSpaceOnUse"
       spreadMethod="reflect"
       x1="55.179581"
       y1="103.37753"
       x2="63.928574"
       y2="103.37753"
       gradientTransform="matrix(1.9306932,0,0,0.73308271,426.21949,760.96683)" />
    <linearGradient
       inkscape:collect="always"
       xlink:href="#linearGradient3950"
       id="linearGradient3867"
       gradientUnits="userSpaceOnUse"
       x1="53.392857"
       y1="55.142857"
       x2="63.928574"
       y2="55.142857"
       spreadMethod="reflect"
       gradientTransform="matrix(0.8660254,0.5,-0.5,0.8660254,40.713741,900.91648)" />
    <linearGradient
       inkscape:collect="always"
       xlink:href="#linearGradient3920"
       id="linearGradient2900"
       gradientUnits="userSpaceOnUse"
       gradientTransform="matrix(0.8660254,0.5,-0.5,0.8660254,40.713741,-23.4457)"
       x1="41.037445"
       y1="17.388296"
       x2="63.928574"
       y2="26.876425" />
    <linearGradient
       inkscape:collect="always"
       xlink:href="#linearGradient3920"
       id="linearGradient3416"
       gradientUnits="userSpaceOnUse"
       gradientTransform="matrix(0.8660254,0.5,-0.5,0.8660254,40.713741,-23.4457)"
       x1="41.037445"
       y1="17.388296"
       x2="63.928574"
       y2="26.876425" />
    <filter
       inkscape:collect="always"
       id="filter4201">
      <feGaussianBlur
         inkscape:collect="always"
         stdDeviation="2.9091313"
         id="feGaussianBlur4203" />
    </filter>
  </defs>
  <sodipodi:namedview
     id="base"
     pagecolor="#ffffff"
     bordercolor="#666666"
     borderopacity="1.0"
     inkscape:pageopacity="0.0"
     inkscape:pageshadow="2"
     inkscape:zoom="2.6420062"
     inkscape:cx="31.539158"
     inkscape:cy="54.204641"
     inkscape:document-units="px"
     inkscape:current-layer="layer1"
     showgrid="false"
     showguides="true"
     inkscape:guide-bbox="true"
     inkscape:window-width="1280"
     inkscape:window-height="693"
     inkscape:window-x="0"
     inkscape:window-y="24"
     inkscape:window-maximized="0">
    <sodipodi:guide
       orientation="1,0"
       position="63.928572,86.785714"
       id="guide2996" />
  </sodipodi:namedview>
  <metadata
     id="metadata7">
    <rdf:RDF>
      <cc:Work
         rdf:about="">
        <dc:format>image/svg+xml</dc:format>
        <dc:type
           rdf:resource="http://purl.org/dc/dcmitype/StillImage" />
        <dc:title />
      </cc:Work>
    </rdf:RDF>
  </metadata>
  <g
     inkscape:label="Ebene 1"
     inkscape:groupmode="layer"
     id="layer1"
     transform="translate(0,-924.36218)">
    <path
       style="fill:#000000;fill-opacity:1;stroke:none;filter:url(#filter4201)"
       d="m 94.272322,938.94218 c -13.130684,1.64053 -23.875585,7.50349 -32.75,16.71875 -0.493313,0.51199 -0.986989,1.02993 -1.46875,1.5625 -0.481478,0.53254 -0.9674,1.07217 -1.4375,1.625 -1.685817,1.98144 -3.299321,4.11037 -4.84375,6.34375 -0.174864,0.25313 -0.358144,0.49373 -0.53125,0.75 -0.0048,0.007 0.0048,0.0241 0,0.0312 -0.166574,0.24676 -0.335044,0.50036 -0.5,0.75 -0.264326,0.39963 -0.552298,0.78053 -0.8125,1.1875 l -9.1875,1.1875 c 0.256221,-2.90246 0.857051,-5.58402 1.78125,-8.09375 0.0047,-0.0127 0.02654,-0.0186 0.03125,-0.0312 0.154568,-0.41814 0.297826,-0.84043 0.46875,-1.25 0.0053,-0.0127 0.02591,-0.0185 0.03125,-0.0312 0.172868,-0.4128 0.342406,-0.81397 0.53125,-1.21875 0.0039,-0.008 -0.0039,-0.023 0,-0.0312 0.380641,-0.81408 0.808652,-1.62043 1.25,-2.40625 0.0069,-0.0123 0.02429,-0.0189 0.03125,-0.0312 0.894169,-1.58803 1.921549,-3.1179 3.03125,-4.625 0.0049,-0.007 -0.0049,-0.0246 0,-0.0312 0.552921,-0.7502 1.120478,-1.48005 1.71875,-2.21875 0.005,-0.006 -0.005,-0.0251 0,-0.0312 0.598984,-0.73904 1.236004,-1.45426 1.875,-2.1875 0.005,-0.006 -0.005,-0.0255 0,-0.0312 0.639593,-0.73354 1.325753,-1.45404 2,-2.1875 0.005,-0.005 -0.005,-0.0258 0,-0.0312 1.359559,-1.47845 2.782595,-2.95571 4.25,-4.46875 -5.628847,0.76754 -16.116249,3.00939 -26.875,9.0625 -0.896267,0.50438 -1.790271,1.03498 -2.6875,1.59375 -2.700128,1.67978 -5.388156,3.59134 -8,5.8125 0.383929,2.00362 0.982446,4.19149 1.53125,6.5 0.0024,0.01 -0.0024,0.0213 0,0.0312 0.180469,0.76004 0.371814,1.53277 0.53125,2.3125 0.02544,0.12425 0.03787,0.25034 0.0625,0.375 0.366521,1.85728 0.638608,3.75622 0.6875,5.65625 2.77e-4,0.0104 -2.63e-4,0.0209 0,0.0312 0.09882,4.0422 -0.810628,8.07553 -3.96875,11.6875 -0.0054,0.006 0.0054,0.0251 0,0.0312 -1.581736,1.80451 -3.735607,3.49291 -6.59375,5.03125 -0.01222,0.007 -0.019,0.0247 -0.03125,0.0312 -0.724673,0.3889 -1.524931,0.75741 -2.34375,1.125 -1.060243,0.47631 -2.1785088,0.93773 -3.40625,1.375 -0.8160958,0.29051 -1.6684227,0.57184 -2.5625,0.84375 2.0637054,5.95404 5.659805,18.29152 12.8125,25.71872 0.357527,0.371 0.718151,0.7175 1.09375,1.0625 4.022913,3.7051 9.092434,5.8292 15.53125,4.6563 l -8.375,14.5 15.25,8.7812 8.375,-14.5 c 1.788894,5.0066 4.99481,8.1557 8.9375,10.0313 3.172025,1.509 6.807383,2.2094 10.53125,2.4062 0.531816,0.028 1.059427,0.054 1.59375,0.062 0.01026,2e-4 0.02099,-10e-5 0.03125,0 0.524074,0.01 1.069389,0.01 1.59375,0 2.139219,-0.035 4.28701,-0.1962 6.34375,-0.4375 2.05674,-0.2412 4.009581,-0.5774 5.84375,-0.9062 0.917084,-0.1644 1.821076,-0.3047 2.65625,-0.4688 1.670349,-0.3282 3.13736,-0.6683 4.375,-0.9062 -0.210668,-0.9064 -0.375272,-1.7764 -0.53125,-2.625 -0.01368,-0.075 -0.01798,-0.1447 -0.03125,-0.2188 -0.11357,-0.6332 -0.228376,-1.2731 -0.3125,-1.875 -0.0015,-0.011 0.0015,-0.021 0,-0.031 -0.05753,-0.4136 -0.08096,-0.7884 -0.125,-1.1875 -0.207579,-1.8812 -0.288883,-3.6082 -0.21875,-5.1875 0.02159,-0.4843 0.04826,-0.9797 0.09375,-1.4375 0.07504,-0.7519 0.176594,-1.4414 0.3125,-2.125 0.14192,-0.7159 0.327884,-1.4169 0.53125,-2.0625 0.03866,-0.1223 0.08424,-0.2551 0.125,-0.375 0.0032,-0.01 -0.0032,-0.022 0,-0.031 0.307914,-0.9007 0.675958,-1.7289 1.09375,-2.5 0.0043,-0.01 -0.0043,-0.023 0,-0.031 4.444088,-8.1669 14.629958,-9.4074 21.374998,-11.75 1.43942,-7.8594 1.29232,-15.30115 0.4375,-21.78127 -0.11971,-0.91437 -0.26057,-1.81324 -0.40625,-2.6875 -0.002,-0.0103 0.002,-0.0209 0,-0.0312 -0.14761,-0.88372 -0.29963,-1.72307 -0.46875,-2.5625 -0.1718,-0.84998 -0.34259,-1.66755 -0.53125,-2.46875 -0.36876,-1.57315 -0.78323,-3.03995 -1.1875,-4.40625 -0.003,-0.01 0.003,-0.0215 0,-0.0312 -0.40396,-1.36341 -0.81889,-2.61864 -1.21875,-3.75 -0.004,-0.0102 0.004,-0.021 0,-0.0312 -0.40278,-1.13822 -0.79796,-2.12358 -1.15625,-3 -1.07509,3.77984 -2.15479,7.377 -3.40625,10.75 -0.0882,0.23757 -0.15985,0.48346 -0.25,0.71875 -0.003,0.009 0.003,0.0222 0,0.0312 -0.34003,0.88641 -0.72119,1.74074 -1.09375,2.59375 -0.004,0.009 0.004,0.0225 0,0.0312 -0.37294,0.85268 -0.77441,1.68254 -1.1875,2.5 -0.42114,0.8343 -0.8417,1.64175 -1.3125,2.4375 -0.23301,0.39402 -0.4721,0.77202 -0.71875,1.15625 -0.005,0.007 0.005,0.0239 0,0.0312 -0.0683,0.10623 -0.14936,0.20703 -0.21875,0.3125 -0.0284,0.0432 -0.0652,0.082 -0.0937,0.125 -1.03839,1.56478 -2.182076,3.0501 -3.499998,4.4375 -0.473039,0.49751 -0.985055,0.99548 -1.5,1.46875 -0.984156,0.9041 -2.064947,1.75081 -3.21875,2.5625 l -3.59375,-8.59375 c 1.064562,-2.05595 2.038915,-4.10257 2.90625,-6.15625 0.578234,-1.36868 1.106546,-2.75742 1.59375,-4.125 0.730788,-2.05207 1.356627,-4.10673 1.875,-6.15625 1.039402,-4.10788 1.650849,-8.18447 1.78125,-12.28125 0.06587,-2.03364 0.0152,-4.06312 -0.15625,-6.09375 -8.67e-4,-0.0102 8.73e-4,-0.0211 0,-0.0312 -0.05785,-0.68029 -0.133588,-1.35131 -0.21875,-2.03125 -0.170316,-1.35954 -0.4059,-2.70431 -0.6875,-4.0625 -0.138774,-0.66944 -0.302462,-1.36217 -0.46875,-2.03125 -0.0024,-0.01 0.0024,-0.0215 0,-0.0312 -0.166694,-0.66908 -0.336714,-1.33128 -0.53125,-2 -0.0027,-0.009 0.0027,-0.0219 0,-0.0312 -0.593381,-2.03544 -1.330067,-4.06179 -2.1875,-6.09375 z m -57.5,67.68752 6.21875,3.625 -7.0625,12.1875 c -0.05922,-0.2316 -0.134162,-0.4587 -0.1875,-0.6875 -0.0047,-0.02 0.0047,-0.042 0,-0.062 -0.04997,-0.2162 -0.11145,-0.4426 -0.15625,-0.6563 -0.0068,-0.032 -0.02461,-0.062 -0.03125,-0.094 -0.0068,-0.033 -0.0246,-0.061 -0.03125,-0.094 -0.0063,-0.031 0.0062,-0.063 0,-0.094 -0.09681,-0.4848 -0.17926,-0.9655 -0.25,-1.4375 -0.0032,-0.021 0.0031,-0.041 0,-0.062 -0.0032,-0.022 -0.02807,-0.041 -0.03125,-0.062 -0.01229,-0.084 -0.01979,-0.166 -0.03125,-0.25 -0.0087,-0.064 -0.02299,-0.1238 -0.03125,-0.1875 -0.0055,-0.042 0.0053,-0.083 0,-0.125 -0.130653,-1.0455 -0.210056,-2.0506 -0.21875,-3.0313 -3.26e-4,-0.032 2.03e-4,-0.062 0,-0.094 -0.0038,-0.6951 0.04056,-1.3692 0.09375,-2.0313 0.08973,-1.115 0.230998,-2.1982 0.46875,-3.2187 0.0171,-0.073 0.04468,-0.1459 0.0625,-0.2188 0.129265,-0.5291 0.271815,-1.0281 0.4375,-1.5312 0.125941,-0.3834 0.291668,-0.7568 0.4375,-1.125 0.07431,-0.187 0.13952,-0.3795 0.21875,-0.5625 0.0037,-0.01 -0.0037,-0.023 0,-0.031 0.02413,-0.056 0.06917,-0.1009 0.09375,-0.1562 z m 21.4375,12.4062 6.21875,3.5625 c -0.08819,0.1214 -0.158488,0.2549 -0.25,0.375 -0.04069,0.053 -0.08365,0.1032 -0.125,0.1563 -0.04126,0.053 -0.08308,0.1035 -0.125,0.1562 -0.240156,0.3022 -0.487931,0.582 -0.75,0.875 -0.282336,0.3161 -0.566659,0.6332 -0.875,0.9375 -0.07495,0.074 -0.142245,0.1457 -0.21875,0.2188 -0.05455,0.052 -0.100906,0.1044 -0.15625,0.1562 -0.09605,0.09 -0.214042,0.161 -0.3125,0.25 -0.157286,0.1419 -0.305273,0.2988 -0.46875,0.4375 -0.527782,0.4476 -1.093898,0.8998 -1.6875,1.3125 -0.0943,0.066 -0.185263,0.1229 -0.28125,0.1875 -0.21139,0.1425 -0.436585,0.2686 -0.65625,0.4063 -0.188587,0.1182 -0.367754,0.2291 -0.5625,0.3437 -0.0404,0.024 -0.08433,0.039 -0.125,0.062 -0.284763,0.1655 -0.577066,0.3424 -0.875,0.5 -0.04154,0.022 -0.0832,0.041 -0.125,0.062 -0.104035,0.054 -0.20686,0.1029 -0.3125,0.1563 -0.407054,0.2057 -0.818851,0.4032 -1.25,0.5937 -0.09414,0.042 -0.185952,0.084 -0.28125,0.125 -0.0088,0 -0.02243,-0 -0.03125,0 -0.03015,0.013 -0.06348,0.018 -0.09375,0.031 -0.05642,0.024 -0.09942,0.07 -0.15625,0.094 -0.05247,0.022 -0.103433,0.041 -0.15625,0.062 -0.03001,0.012 -0.06363,0.019 -0.09375,0.031 -0.05184,0.021 -0.104083,0.042 -0.15625,0.062 -0.04363,0.017 -0.08114,0.045 -0.125,0.062 -0.195273,0.077 -0.393847,0.1451 -0.59375,0.2187 -0.553279,0.204 -1.098256,0.3832 -1.6875,0.5625 -0.02248,0.01 -0.03996,0.024 -0.0625,0.031 -0.225287,0.068 -0.456898,0.123 -0.6875,0.1875 l 7.0625,-12.2188 z"
       id="path3382"
       inkscape:connector-curvature="0" />
    <path
       style="fill:url(#linearGradient2900);fill-opacity:1;stroke:none"
       d="M 93.65625 12.6875 C 70.312811 15.604 54.467171 31.84599 43.375 56.59375 C 38.396486 36.29591 47.38576 26.0418 59.125 13.9375 C 51.61987 14.96088 35.452725 18.59374 21.5625 30.40625 C 23.610122 41.09224 31.820631 57.4233 5.46875 65.4375 C 8.7706787 74.96396 15.980297 100.83965 35.4375 96.78125 C 29.220537 74.16413 51.058867 64.26147 60.8125 69.625 C 70.334265 75.39013 72.664203 99.23175 49.96875 105.15625 C 56.182643 124.03595 82.161379 117.3412 92.0625 115.4375 C 85.827051 88.6091 104.09685 87.5697 114.375 84 C 117.65983 66.06444 112.71004 50.26132 109.84375 43.25 C 105.23074 59.46862 100.84896 72.38132 80.78125 78.21875 C 96.66735 56.23874 102.8022 34.36177 93.65625 12.6875 z "
       id="path2896"
       transform="translate(0,924.36218)" />
    <rect
       style="fill:url(#linearGradient3082);fill-opacity:1;stroke:none"
       id="rect3074"
       width="17.604822"
       height="33.58757"
       x="540.84351"
       y="850.10522"
       transform="matrix(0.8660254,0.5,-0.5,0.8660254,0,0)" />
    <rect
       transform="matrix(0.8660254,0.5,-0.5,0.8660254,0,0)"
       y="850.10522"
       x="540.84351"
       height="33.58757"
       width="17.604822"
       id="rect3852"
       style="fill:url(#linearGradient3854);fill-opacity:1;stroke:none" />
    <rect
       y="827.12427"
       x="532.65118"
       height="24.622467"
       width="33.98951"
       id="rect3858"
       style="fill:url(#linearGradient3860);fill-opacity:1;stroke:none"
       transform="matrix(0.8660254,0.5,-0.5,0.8660254,0,0)" />
    <rect
       style="fill:url(#linearGradient3970);fill-opacity:1;stroke:none"
       id="rect3887"
       width="20.139915"
       height="17.803938"
       x="-88.454964"
       y="964.6709"
       transform="matrix(0.99184766,-0.12742924,0.12742924,0.99184766,0,0)" />
    <rect
       y="827.8819"
       x="531.17426"
       height="24.180527"
       width="18.471708"
       id="rect3982"
       style="fill:url(#linearGradient4010);fill-opacity:1;stroke:none"
       transform="matrix(0.8660254,0.5,-0.5,0.8660254,0,0)" />
    <path
       style="fill:url(#linearGradient3926);fill-opacity:1;stroke:none"
       d="m 93.665246,937.05893 c -23.343439,2.9165 -39.207901,19.16023 -50.300072,43.90799 -4.978514,-20.29784 4.021636,-30.55148 15.760876,-42.65578 -7.50513,1.02338 -23.659678,4.6544 -37.549903,16.46691 2.047622,10.68599 10.2484,27.02071 -16.1034813,35.03491 3.3019287,9.52646 10.5042113,35.37804 29.9614143,31.31964 -6.216963,-22.61712 15.616008,-32.51937 25.369641,-27.15584 z"
       id="path2998"
       inkscape:connector-curvature="0"
       sodipodi:nodetypes="ccccccc" />
    <path
       sodipodi:nodetypes="ccccccc"
       inkscape:connector-curvature="0"
       id="path3879"
       d="m 43.365174,980.96692 c -4.978514,-20.29784 4.021636,-30.55148 15.760876,-42.65578 -7.50513,1.02338 -23.659678,4.6544 -37.549903,16.46691 2.047622,10.68599 10.2484,27.02071 -16.1034813,35.03491 3.3019287,9.52646 10.5042113,35.37804 29.9614143,31.31964 -3.731,-13.5733 2.640426,-22.56716 10.440625,-26.43032 -1.087603,-4.10986 -2.335748,-8.16102 -2.509531,-13.73536 z"
       style="fill:url(#linearGradient3918);fill-opacity:1;stroke:none" />
    <path
       style="fill:url(#linearGradient3934);fill-opacity:1;stroke:none"
       d="m 20.135408,981.69739 c -2.873509,3.1341 -7.487136,5.9333 -14.6627423,8.11557 3.3019287,9.52646 10.5042113,35.37804 29.9614143,31.31964 -1.940462,-7.0594 -1.148266,-12.88 1.156359,-17.3844 -5.037344,-5.24709 -12.024576,-15.52431 -16.455031,-22.05081 z"
       id="path3881"
       inkscape:connector-curvature="0"
       sodipodi:nodetypes="ccccc" />
    <path
       sodipodi:nodetypes="cccccc"
       inkscape:connector-curvature="0"
       id="path3889"
       d="m 20.220248,989.1012 c -5.103934,1.64017 -12.0736352,2.21945 -14.7475823,0.71176 3.3019287,9.52646 10.5042113,35.37804 29.9614143,31.31964 -0.811266,-2.9514 -1.144893,-5.6863 -1.090043,-8.1989 -5.143666,4.8297 -8.219635,-0.3776 -4.911034,-7.1208 -5.120454,3.4682 -19.8410232,4.1116 -9.212755,-16.7117 z"
       style="fill:url(#linearGradient3942);fill-opacity:1;stroke:none" />
    <rect
       transform="matrix(-0.38556687,-0.92267989,-0.92267989,0.38556687,0,0)"
       y="298.19135"
       x="-962.66754"
       height="17.803938"
       width="20.139915"
       id="rect4044"
       style="fill:url(#linearGradient4064);fill-opacity:1;stroke:none" />
    <rect
       transform="matrix(-0.8660254,-0.5,-0.5,0.8660254,0,0)"
       style="fill:url(#linearGradient4066);fill-opacity:1;stroke:none"
       id="rect4046"
       width="18.471708"
       height="24.180527"
       x="-568.11768"
       y="827.8819" />
    <path
       sodipodi:nodetypes="ccccccc"
       inkscape:connector-curvature="0"
       id="path4048"
       d="m 93.665249,937.05892 c 9.145951,21.67427 3.010695,43.53517 -12.875405,65.51518 20.067706,-5.83743 24.447546,-18.75862 29.060556,-34.97724 2.86629,7.01132 7.79901,22.81708 4.51418,40.75264 -10.27815,3.5697 -28.524812,4.635 -22.289363,31.4634 -9.901121,1.9037 -35.890397,8.5922 -42.10429,-10.2875 22.695453,-5.9245 20.354562,-29.78351 10.832797,-35.54864 z"
       style="fill:url(#linearGradient4068);fill-opacity:1;stroke:none" />
    <path
       style="fill:url(#linearGradient4070);fill-opacity:1;stroke:none"
       d="m 80.789844,1002.5741 c 20.067706,-5.83743 24.447546,-18.75862 29.060556,-34.97724 2.86629,7.01132 7.79901,22.81708 4.51418,40.75264 -10.27815,3.5697 -28.524812,4.635 -22.289363,31.4634 -9.901121,1.9037 -35.890397,8.5922 -42.10429,-10.2875 13.620282,-3.5555 18.223476,-13.5702 17.668972,-22.257 4.103058,-1.113 8.235534,-2.0577 13.149945,-4.6943 z"
       id="path4050"
       inkscape:connector-curvature="0"
       sodipodi:nodetypes="ccccccc" />
    <path
       sodipodi:nodetypes="ccccc"
       inkscape:connector-curvature="0"
       id="path4052"
       d="m 91.772107,1023.0569 c -1.277425,4.0555 -1.394792,9.4506 0.30311,16.756 -9.901121,1.9037 -35.890397,8.5922 -42.10429,-10.2875 7.083773,-1.8491 11.728532,-5.4456 14.477113,-9.6936 7.062776,1.7389 19.45677,2.6514 27.324067,3.2251 z"
       style="fill:url(#linearGradient4072);fill-opacity:1;stroke:none" />
    <path
       style="fill:url(#linearGradient4074);fill-opacity:1;stroke:none"
       d="m 85.317832,1026.6853 c 1.131535,5.2402 4.114676,11.5658 6.757385,13.1276 -9.901121,1.9037 -35.890397,8.5922 -42.10429,-10.2875 2.961576,-0.7731 5.496868,-1.8516 7.645448,-3.1554 -1.610763,6.8693 4.436806,6.9296 8.622324,0.6927 -0.443361,6.1685 6.359798,19.2385 19.079133,-0.3774 z"
       id="path4054"
       inkscape:connector-curvature="0"
       sodipodi:nodetypes="cccccc" />
    <path
       style="fill:url(#linearGradient3867);fill-opacity:1;stroke:none"
       d="m 85.819615,950.66582 c -5.077468,0.0821 -11.972518,4.21629 -14.794749,6.00025 3.213941,12.27541 -6.813809,19.50537 -13.148617,18.46158 -2.433328,5.46074 -4.799372,10.95419 -2.418832,17.43954 1.972202,0.0992 3.814784,0.58463 5.346573,1.42696 1.495372,0.90541 2.810017,2.24277 3.88201,3.90116 6.806747,-1.18107 10.381186,-5.97684 13.893668,-10.81454 -4.071355,-4.9642 -2.8239,-17.26348 9.413883,-20.61782 0.133839,-3.33611 0.293652,-11.35884 -2.173936,-15.79713 z"
       id="path3891"
       inkscape:connector-curvature="0" />
  </g>
</svg>
